<svg xmlns="http://www.w3.org/2000/svg" version="1.1" xmlns:xlink="http://www.w3.org/1999/xlink" xmlns:svgjs="http://svgjs.dev/svgjs" width="1500" height="329" viewBox="0 0 1500 329"><g transform="matrix(1,0,0,1,-0.9090909090911055,-0.9434434302005741)"><svg viewBox="0 0 396 87" data-background-color="#ffffff" preserveAspectRatio="xMidYMid meet" height="329" width="1500" xmlns="http://www.w3.org/2000/svg" xmlns:xlink="http://www.w3.org/1999/xlink"><g id="tight-bounds" transform="matrix(1,0,0,1,0.24000000000003752,0.24948200129924203)"><svg viewBox="0 0 395.5199999999999 86.5010359974015" height="86.5010359974015" width="395.5199999999999"><g><svg viewBox="0 0 576.8086552907428 126.14923709273184" height="86.5010359974015" width="395.5199999999999"><g><rect width="8.231742682369926" height="91.73660150375939" x="151.50784799483904" y="17.206317794486225" fill="#202046" opacity="1" stroke-width="0" stroke="transparent" fill-opacity="1" class="rect-yte-0" data-fill-palette-color="primary" rx="1%" id="yte-0" data-palette-color="#202046"></rect></g><g transform="matrix(1,0,0,1,181.2886552907428,17.434518295739352)"><svg viewBox="0 0 395.52 91.28020050125313" height="91.28020050125313" width="395.52"><g id="textblocktransform"><svg viewBox="0 0 395.52 91.28020050125313" height="91.28020050125313" width="395.52" id="textblock"><g><svg viewBox="0 0 395.52 91.28020050125313" height="91.28020050125313" width="395.52"><g transform="matrix(1,0,0,1,0,0)"><svg width="395.52" viewBox="3.75 -54.4 239.38 55.25" height="91.28020050125313" data-palette-color="#202046"><path d="M17.15 0.85Q13.5 0.85 10.45-0.63 7.4-2.1 5.58-5.15 3.75-8.2 3.75-12.75L3.75-12.75Q3.75-18.55 6.65-23.88 9.55-29.2 14.53-32.5 19.5-35.8 25.4-35.8L25.4-35.8Q28.6-35.8 31.4-34.83 34.2-33.85 35.3-32.2L35.3-32.2Q34.8-30.9 34.43-28.93 34.05-26.95 34-25.2L34-25.2 32.75-25Q32.75-25.75 32.68-26.85 32.6-27.95 32.45-28.85L32.45-28.85Q32.1-31.2 30.48-32.45 28.85-33.7 25.55-33.7L25.55-33.7Q20.2-33.7 15.88-30.6 11.55-27.5 9.1-22.65 6.65-17.8 6.65-12.85L6.65-12.85Q6.65-9.05 8.13-6.53 9.6-4 12.08-2.78 14.55-1.55 17.6-1.55L17.6-1.55Q22.85-1.55 27.4-4.98 31.95-8.4 34.3-14.75L34.3-14.75Q35.65-14.75 35.65-12.9L35.65-12.9Q35.65-10.3 33.05-7.03 30.45-3.75 26.18-1.45 21.9 0.85 17.15 0.85L17.15 0.85ZM69.75-11.55Q70.4-11.55 70.4-10.25L70.4-10.25Q70.4-7.95 68.37-5.4 66.35-2.85 63.47-1.13 60.6 0.6 58.2 0.6L58.2 0.6Q56.25 0.6 55.2-0.6 54.15-1.8 53.95-3.7L53.95-3.7Q52.7-1.9 50.8-0.75 48.9 0.4 47.4 0.4L47.4 0.4Q46.1 0.4 44.82-0.48 43.55-1.35 42.75-2.63 41.95-3.9 41.9-5.05L41.9-5.05 44.35-15.15Q44.65-16.35 45.87-17.73 47.1-19.1 48.85-20 50.6-20.9 52.4-20.9L52.4-20.9Q54.7-20.9 56.45-19.35L56.45-19.35Q56.9-20.55 57.12-20.85 57.35-21.15 57.8-21.2L57.8-21.2 60.25-21.45 60.4-21.35Q59.4-20.55 58.95-18.85L58.95-18.85Q57.4-13.05 56.82-10.3 56.25-7.55 56.25-5.45L56.25-5.45Q56.25-3.35 56.8-2.38 57.35-1.4 58.65-1.4L58.65-1.4Q60.25-1.4 62.47-2.7 64.7-4 66.7-6.33 68.7-8.65 69.75-11.55L69.75-11.55ZM47.6-1.95Q48.45-1.95 49.67-2.55 50.9-3.15 51.97-4.28 53.05-5.4 53.45-6.85L53.45-6.85 54.4-10.95Q54.6-11.95 55.1-14.18 55.6-16.4 55.9-17.6L55.9-17.6Q54.5-19 52.5-19L52.5-19Q50.95-19 49.7-18.18 48.45-17.35 47.65-16.18 46.85-15 46.65-14.1L46.65-14.1 44.65-5.2Q44.75-3.95 45.65-2.95 46.55-1.95 47.6-1.95L47.6-1.95ZM70.3 0.65Q67.9 0.65 66.22-0.5 64.55-1.65 64.55-3.15L64.55-3.15Q64.55-3.95 65-4.45 65.45-4.95 66-5.05L66-5.05Q66.55-3.15 67.8-2.2 69.05-1.25 70.84-1.25L70.84-1.25Q73.09-1.25 74.45-2.53 75.8-3.8 75.8-5.5L75.8-5.5Q75.8-6.75 75.07-7.7 74.34-8.65 72.9-9.9L72.9-9.9Q71.3-11.3 70.52-12.33 69.75-13.35 69.75-14.8L69.75-14.8Q69.75-16.35 70.72-17.75 71.7-19.15 73.22-20 74.75-20.85 76.4-20.85L76.4-20.85Q77.84-20.85 79.07-20.23 80.3-19.6 80.3-18.55L80.3-18.55Q80.3-17.55 79.09-16.45L79.09-16.45Q78.45-17.6 77.5-18.23 76.55-18.85 75.5-18.85L75.5-18.85Q73.9-18.85 73.07-17.68 72.25-16.5 72.25-15.35L72.25-15.35Q72.25-14.4 72.9-13.65 73.55-12.9 74.95-11.75L74.95-11.75Q76.65-10.3 77.55-9.15 78.45-8 78.45-6.45L78.45-6.45Q78.45-4.8 77.37-3.15 76.3-1.5 74.42-0.43 72.55 0.65 70.3 0.65L70.3 0.65ZM112.04-54.4Q116.34-54.4 118.84-52.03 121.34-49.65 121.34-45.35L121.34-45.35 120.99-44.75Q119.89-48.15 117.54-49.78 115.19-51.4 111.89-51.4L111.89-51.4Q104.94-51.4 100.09-43.58 95.24-35.75 91.69-21L91.69-21 90.39-15.35 89.74-12.45Q91.79-15.35 94.94-18.07 98.09-20.8 99.69-20.8L99.69-20.8Q100.09-20.8 100.87-20.05 101.64-19.3 101.64-18.95L101.64-18.95Q100.69-16.2 99.39-10.9 98.09-5.6 98.09-4.15L98.09-4.15Q98.09-2.75 98.54-2.13 98.99-1.5 100.39-1.5L100.39-1.5Q102.89-1.5 105.24-3.4 107.59-5.3 109.32-7.73 111.04-10.15 111.94-12L111.94-12Q112.29-11.9 112.49-11.65 112.69-11.4 112.74-10.9L112.74-10.9 112.74-10.75Q112.74-10.15 112.34-9.35L112.34-9.35Q110.04-5.15 106.44-2.27 102.84 0.6 99.44 0.6L99.44 0.6Q97.69 0.6 96.64-0.5 95.59-1.6 95.59-3.6L95.59-3.6Q95.59-5.55 96.22-8.4 96.84-11.25 97.89-15.1L97.89-15.1Q97.84-14.85 98.44-17.15L98.44-17.15Q98.39-17.35 98.19-17.5 97.99-17.65 97.84-17.65L97.84-17.65Q97.34-17.65 95.49-16 93.64-14.35 91.74-12.05 89.84-9.75 88.89-7.75L88.89-7.75Q88.39-5.75 87.89-2.75L87.89-2.75Q87.84-2.4 87.79-2 87.74-1.6 87.64-1.2L87.64-1.2Q87.49-0.3 87.37 0.03 87.24 0.35 86.94 0.35L86.94 0.35Q86.34 0.35 85.59 0.05 84.84-0.25 84.84-0.7L84.84-0.7Q84.84-1.35 85.14-2.6L85.14-2.6 89.49-21.05Q93.14-36.65 98.79-45.53 104.44-54.4 112.04-54.4L112.04-54.4ZM137.29-36.25Q137.59-36.2 137.74-35.95L137.74-35.95Q137.34-35.45 137.19-34.43 137.04-33.4 137.04-33.25L137.04-33.25Q136.89-32.4 136.29-32.4L136.29-32.4Q134.09-32.4 127.59-32.8L127.59-32.8Q122.19-33.1 121.44-33.1L121.44-33.1Q120.44-33.1 120.17-32.9 119.89-32.7 119.69-32.05L119.69-32.05Q119.19-30.35 116.74-18.3L116.74-18.3Q120.14-18.1 122.89-18.1L122.89-18.1Q129.59-18.1 133.69-19.3L133.69-19.3 133.89-19.1Q133.74-18.8 133.49-17.75 133.24-16.7 133.24-16.15L133.24-16.15Q130.79-16.15 128.44-16.2L128.44-16.2 116.29-16.25Q113.44-1.9 113.44-0.85L113.44-0.85 113.49-0.15Q112.79 0.2 111.29 0.2L111.29 0.2Q110.79 0.2 110.57 0.08 110.34-0.05 110.34-0.55L110.34-0.55Q110.34-0.95 110.64-2.35L110.64-2.35 113.79-16.9Q115.24-23.35 116.12-27.53 116.99-31.7 116.99-32.4L116.99-32.4Q116.99-33.2 115.74-33.2L115.74-33.2 114.19-33.1 112.84-33.05Q112.24-33.05 112.24-33.35L112.24-33.35Q112.24-33.6 112.42-34.23 112.59-34.85 112.89-35.35L112.89-35.35Q118.74-35 126.19-35L126.19-35Q131.84-35 133.87-35.2 135.89-35.4 137.29-36.25L137.29-36.25ZM163.69-11.7Q164.44-11.5 164.49-10.8L164.49-10.8Q164.49-9.6 162.59-6.83 160.69-4.05 157.89-1.85 155.09 0.35 152.29 0.35L152.29 0.35Q150.39 0.35 149.31-0.78 148.24-1.9 148.24-3.8L148.24-3.8Q148.24-4.45 148.34-4.85L148.34-4.85Q147.24-3.05 145.46-1.48 143.69 0.1 141.99 0.1L141.99 0.1Q140.54 0.1 139.14-1.05 137.74-2.2 137.44-3.4L137.44-3.4Q137.39-5.65 138.06-8.55 138.74-11.45 141.14-19.8L141.14-19.8Q141.44-20.75 141.84-20.75L141.84-20.75Q142.24-20.75 142.89-20.35 143.54-19.95 143.54-19.55L143.54-19.55Q143.54-19.35 143.41-19 143.29-18.65 143.24-18.45L143.24-18.45Q140.04-7.65 139.89-4.15L139.89-4.15Q140.14-3.5 140.96-2.83 141.79-2.15 142.39-2.15L142.39-2.15Q143.04-2.15 144.19-2.93 145.34-3.7 146.64-5.48 147.94-7.25 149.04-10.1L149.04-10.1Q150.34-13.55 151.94-20.2L151.94-20.2Q152.04-20.75 152.49-20.75L152.49-20.75Q152.89-20.75 153.56-20.33 154.24-19.9 154.24-19.35L154.24-19.35Q154.24-18.9 153.79-17.55 153.34-16.2 153.24-15.85L153.24-15.85Q152.04-12.35 151.31-9.68 150.59-7 150.59-4.9L150.59-4.9Q150.59-1.65 152.84-1.65L152.84-1.65Q154.29-1.65 156.19-2.88 158.09-4.1 160.06-6.4 162.04-8.7 163.69-11.7L163.69-11.7ZM164.24 0.65Q161.84 0.65 160.16-0.5 158.49-1.65 158.49-3.15L158.49-3.15Q158.49-3.95 158.94-4.45 159.38-4.95 159.94-5.05L159.94-5.05Q160.49-3.15 161.74-2.2 162.99-1.25 164.78-1.25L164.78-1.25Q167.03-1.25 168.38-2.53 169.74-3.8 169.74-5.5L169.74-5.5Q169.74-6.75 169.01-7.7 168.28-8.65 166.84-9.9L166.84-9.9Q165.24-11.3 164.46-12.33 163.69-13.35 163.69-14.8L163.69-14.8Q163.69-16.35 164.66-17.75 165.63-19.15 167.16-20 168.69-20.85 170.34-20.85L170.34-20.85Q171.78-20.85 173.01-20.23 174.24-19.6 174.24-18.55L174.24-18.55Q174.24-17.55 173.03-16.45L173.03-16.45Q172.38-17.6 171.44-18.23 170.49-18.85 169.44-18.85L169.44-18.85Q167.84-18.85 167.01-17.68 166.19-16.5 166.19-15.35L166.19-15.35Q166.19-14.4 166.84-13.65 167.49-12.9 168.88-11.75L168.88-11.75Q170.59-10.3 171.49-9.15 172.38-8 172.38-6.45L172.38-6.45Q172.38-4.8 171.31-3.15 170.24-1.5 168.36-0.43 166.49 0.65 164.24 0.65L164.24 0.65ZM184.33 0.35Q182.58 0.35 181.21-0.83 179.83-2 179.83-4.3L179.83-4.3Q180.58-6.7 182.43-14.95L182.43-14.95Q183.33-19 183.53-19.8L183.53-19.8Q184.18-20.9 185.33-20.9L185.33-20.9Q186.08-20.9 186.08-20.4L186.08-20.4Q185.73-19.15 185.11-16.43 184.48-13.7 184.13-12.15L184.13-12.15Q182.78-5.95 182.28-4.2L182.28-4.2Q182.28-3.05 182.96-2.43 183.63-1.8 184.73-1.8L184.73-1.8Q187.23-1.8 189.76-3.58 192.28-5.35 194.21-7.7 196.13-10.05 197.08-11.75L197.08-11.75Q197.38-11.65 197.48-11.43 197.58-11.2 197.58-10.65L197.58-10.65Q197.58-9.9 197.08-9.1L197.08-9.1Q194.38-4.85 191.03-2.25 187.68 0.35 184.33 0.35L184.33 0.35ZM186.63-27.15Q185.93-27.15 185.53-27.63 185.13-28.1 185.13-28.85L185.13-28.85Q185.13-29.85 185.78-30.68 186.43-31.5 187.43-31.5L187.43-31.5Q188.23-31.5 188.61-31 188.98-30.5 188.98-29.8L188.98-29.8Q188.98-28.8 188.31-27.98 187.63-27.15 186.63-27.15L186.63-27.15ZM221.48-17.65Q221.98-17.5 221.98-16.65L221.98-16.65Q221.98-15.4 220.98-14.08 219.98-12.75 218.25-11.9 216.53-11.05 214.48-11.05L214.48-11.05Q211.73-11.05 209.63-12.55L209.63-12.55Q209.33-11.1 208.88-9.6L208.88-9.6Q208.73-9.05 208.23-7.08 207.73-5.1 207.53-3.55L207.53-3.55Q207.18-2.75 206.13-1.83 205.08-0.9 203.63-0.25 202.18 0.4 200.78 0.4L200.78 0.4Q199.23 0.4 197.78-0.4 196.33-1.2 195.41-2.55 194.48-3.9 194.48-5.55L194.48-5.55Q195.18-7.65 195.63-9.5 196.08-11.35 196.48-13.25L196.48-13.25 196.98-15.75Q197.23-16.9 198.33-18.03 199.43-19.15 201-19.88 202.58-20.6 204.18-20.6L204.18-20.6Q204.78-20.6 205.88-20.4L205.88-20.4Q206.03-21.55 206.41-22 206.78-22.45 207.63-22.45L207.63-22.45Q208.13-22.45 208.78-22.3L208.78-22.3Q208.53-20.9 208.53-19.9L208.53-19.9Q208.53-17 210.28-15 212.03-13 215.03-13L215.03-13Q217.28-13 218.91-14.2 220.53-15.4 221.48-17.65L221.48-17.65ZM205.33-4.4Q205.73-6.4 206.48-8.95L206.48-8.95Q207.48-12.3 207.78-14.35L207.78-14.35Q206.68-15.75 206.28-17.75L206.28-17.75Q206.28-17.95 206.21-18.07 206.13-18.2 205.88-18.25L205.88-18.25Q205.13-18.55 204.18-18.55L204.18-18.55Q202.33-18.55 200.98-17.55 199.63-16.55 199.28-15.15L199.28-15.15Q199.13-14.55 198.18-10.45L198.18-10.45Q197.73-8.05 197.08-5.7L197.08-5.7Q197.08-3.85 198.33-2.83 199.58-1.8 200.98-1.8L200.98-1.8Q202.18-1.8 203.56-2.65 204.93-3.5 205.33-4.4L205.33-4.4ZM242.18-12.2Q242.68-12.2 242.9-11.78 243.13-11.35 243.13-10.8L243.13-10.8Q243.13-9 241.23-6.25 239.33-3.5 236.4-1.45 233.48 0.6 230.63 0.6L230.63 0.6Q228.83 0.6 227.85-0.3 226.88-1.2 226.88-3.05L226.88-3.05Q226.88-5.6 228.28-9.98 229.68-14.35 230.83-17.25L230.83-17.25Q230.63-17.55 230.43-17.55L230.43-17.55Q230.23-17.55 229.98-17.4L229.98-17.4Q229.08-16.85 227.03-14.95 224.98-13.05 223.03-10.95 221.08-8.85 220.38-7.55L220.38-7.55Q219.58-5.4 219.38-4.83 219.18-4.25 218.98-2.95L218.98-2.95 218.53-0.7Q218.48-0.55 218.43-0.33 218.38-0.1 218.3-0.05 218.23 0 218.08 0L218.08 0Q217.63 0 216.9-0.1 216.18-0.2 216.18-0.4L216.18-0.4Q216.18-1 216.53-2.35 216.88-3.7 217.23-4.8 217.58-5.9 217.78-6.5L217.78-6.5 218.23-7.9Q219.68-12.9 220.2-15.18 220.73-17.45 221.23-20.25L221.23-20.25Q221.28-20.75 221.93-20.75L221.93-20.75Q222.38-20.75 222.95-20.53 223.53-20.3 223.63-19.9L223.63-19.9Q223.43-19 222.9-16.85 222.38-14.7 221.63-12.1L221.63-12.1Q224.53-15.35 227.65-18 230.78-20.65 231.83-20.65L231.83-20.65Q232.33-20.65 233.03-20.15 233.73-19.65 233.88-19.2L233.88-19.2Q232.28-14.9 230.83-9.83 229.38-4.75 229.38-3.15L229.38-3.15Q229.38-1.4 231.38-1.4L231.38-1.4Q234.33-1.4 237.35-4.7 240.38-8 242.18-12.2L242.18-12.2Z" opacity="1" transform="matrix(1,0,0,1,0,0)" fill="#202046" class="wordmark-text-0" data-fill-palette-color="primary" id="text-0"></path></svg></g></svg></g></svg></g></svg></g><g><svg viewBox="0 0 129.9587833813052 126.14923709273184" height="126.14923709273184" width="129.9587833813052"><g><svg xmlns="http://www.w3.org/2000/svg" xmlns:xlink="http://www.w3.org/1999/xlink" xmlns:xodm="http://www.corel.com/coreldraw/odm/2003" xml:space="preserve" version="1.1" style="shape-rendering:geometricPrecision;text-rendering:geometricPrecision;image-rendering:optimizeQuality;" viewBox="455.69 1363.89 59045.84 57315" x="0" y="0" fill-rule="evenodd" clip-rule="evenodd" height="126.14923709273184" width="129.9587833813052" class="icon-icon-0" data-fill-palette-color="accent" id="icon-0"><g fill="#fe633d" data-fill-palette-color="accent"><path class="" d="M9428.19 1363.89C11992.07 1363.89 14266.51 4635.4 15871.11 9924.69 17434.01 15076.46 18400.69 22182.42 18400.69 30021.39S17434.01 44966.32 15871.11 50118.09C14266.51 55407.38 11992.07 58678.89 9428.19 58678.89S4589.87 55407.38 2985.27 50118.09C1422.37 44966.32 455.69 37860.36 455.69 30021.39S1422.37 15076.46 2985.27 9924.69C4589.87 4635.4 6864.31 1363.89 9428.19 1363.89M15108.61 10155.95C13610.61 5218.06 11598.76 2163.89 9428.19 2163.89S5245.77 5218.06 3747.77 10155.95C2208.04 15231.35 1255.69 22254.18 1255.69 30021.39S2208.04 44811.43 3747.77 49886.83C5245.77 54824.72 7257.62 57878.89 9428.19 57878.89S13610.61 54824.72 15108.61 49886.83C16648.34 44811.43 17600.69 37788.6 17600.69 30021.39S16648.34 15231.35 15108.61 10155.95M29920.9 1363.89C31847.25 1363.89 33530.87 4647.35 34695.64 9955.94 35823.41 15095.92 36520.97 22190.52 36520.97 30021.39S35823.41 44946.86 34695.64 50086.84C33530.87 55395.43 31847.25 58678.89 29920.9 58678.89S26310.93 55395.43 25146.16 50086.84C24018.39 44946.86 23320.83 37852.26 23320.83 30021.39S24018.39 15095.92 25146.16 9955.94C26310.93 4647.35 27994.55 1363.89 29920.9 1363.89M33914.38 10124.7C32835.18 5206.12 31418.74 2163.89 29920.9 2163.89S27006.62 5206.12 25927.42 10124.7C24811.22 15211.92 24120.83 22246.09 24120.83 30021.39S24811.22 44830.86 25927.42 49918.08C27006.62 54836.66 28423.06 57878.89 29920.9 57878.89S32835.18 54836.66 33914.38 49918.08C35030.58 44830.86 35720.97 37796.69 35720.97 30021.39S35030.58 15211.92 33914.38 10124.7M46113.61 1363.89C47402.79 1363.89 48493.77 4659.28 49215.47 9987.18 49911.03 15122.17 50341.25 22205.96 50341.25 30021.39S49911.03 44920.61 49215.47 50055.6C48493.77 55383.5 47402.79 58678.89 46113.61 58678.89S43733.45 55383.5 43011.75 50055.6C42316.19 44920.61 41885.97 37836.82 41885.97 30021.39S42316.19 15122.17 43011.75 9987.18C43733.45 4659.28 44824.43 1363.89 46113.61 1363.89M48424.85 10093.44C47761.22 5194.18 46938.36 2163.89 46113.61 2163.89 45288.87 2163.89 44466 5194.18 43802.37 10093.44 43112.6 15185.65 42685.97 22230.63 42685.97 30021.39S43112.6 44857.13 43802.37 49949.34C44466 54848.6 45288.87 57878.89 46113.61 57878.89 46938.36 57878.89 47761.22 54848.6 48424.85 49949.34 49114.62 44857.13 49541.25 37812.15 49541.25 30021.39S49114.62 15185.65 48424.85 10093.44M57646.32 1363.89C58300.75 1363.89 58798.33 4671.83 59073.75 10020.01 59338.05 15152.31 59501.53 22224.96 59501.53 30021.39S59338.05 44890.47 59073.75 50022.77C58798.33 55370.95 58300.75 58678.89 57646.32 58678.89S56494.31 55370.95 56218.89 50022.77C55954.59 44890.47 55791.11 37817.82 55791.11 30021.39S55954.59 15152.31 56218.89 10020.01C56494.31 4671.83 56991.89 1363.89 57646.32 1363.89M58276.87 10060.63C58025.62 5181.63 57795.57 2163.89 57646.32 2163.89S57267.02 5181.63 57015.77 10060.63C56753.4 15155.5 56591.11 22211.65 56591.11 30021.39S56753.4 44887.28 57015.77 49982.15C57267.02 54861.15 57497.07 57878.89 57646.32 57878.89S58025.62 54861.15 58276.87 49982.15C58539.24 44887.28 58701.53 37831.13 58701.53 30021.39S58539.24 15155.5 58276.87 10060.63" fill="#fe633d" fill-rule="nonzero" data-fill-palette-color="accent"></path></g></svg></g></svg></g></svg></g><defs></defs></svg><rect width="395.5199999999999" height="86.5010359974015" fill="none" stroke="none" visibility="hidden"></rect></g></svg></g></svg>